<svg xmlns="http://www.w3.org/2000/svg" xmlns:xlink="http://www.w3.org/1999/xlink" width="200" zoomAndPan="magnify" viewBox="0 0 150 37.5" height="50" preserveAspectRatio="xMidYMid meet" version="1.0"><defs><g/><clipPath id="146d80a093"><path d="M 118 8 L 130 8 L 130 20 L 118 20 Z M 118 8 " clip-rule="nonzero"/></clipPath><clipPath id="d6af4372d3"><path d="M 116.769531 10.226562 L 124.378906 3.191406 L 134.925781 14.605469 L 127.316406 21.640625 Z M 116.769531 10.226562 " clip-rule="nonzero"/></clipPath><clipPath id="c2950b1c00"><path d="M 116.769531 10.226562 L 124.378906 3.191406 L 134.925781 14.605469 L 127.316406 21.640625 Z M 116.769531 10.226562 " clip-rule="nonzero"/></clipPath><clipPath id="4fd63ef324"><path d="M 124 3 L 135 3 L 135 15 L 124 15 Z M 124 3 " clip-rule="nonzero"/></clipPath><clipPath id="767ed1b645"><path d="M 122.136719 5.261719 L 129.746094 -1.769531 L 140.296875 9.644531 L 132.6875 16.675781 Z M 122.136719 5.261719 " clip-rule="nonzero"/></clipPath><clipPath id="b7d6c0f305"><path d="M 122.136719 5.261719 L 129.746094 -1.769531 L 140.296875 9.644531 L 132.6875 16.675781 Z M 122.136719 5.261719 " clip-rule="nonzero"/></clipPath></defs><g clip-path="url(#146d80a093)"><g clip-path="url(#d6af4372d3)"><g clip-path="url(#c2950b1c00)"><path fill="#18cb96" d="M 129.445312 8.984375 L 120.382812 8.582031 C 118.628906 8.503906 118.335938 11.914062 120.410156 11.972656 L 126.050781 12.125 L 125.621094 17.800781 C 125.488281 19.53125 128.859375 19.710938 128.957031 17.957031 Z M 129.445312 8.984375 " fill-opacity="1" fill-rule="nonzero"/></g></g></g><g clip-path="url(#4fd63ef324)"><g clip-path="url(#767ed1b645)"><g clip-path="url(#b7d6c0f305)"><path fill="#18cb96" d="M 134.816406 4.023438 L 125.75 3.621094 C 124 3.542969 123.703125 6.953125 125.777344 7.011719 L 131.417969 7.164062 L 130.988281 12.839844 C 130.855469 14.566406 134.226562 14.75 134.324219 12.992188 Z M 134.816406 4.023438 " fill-opacity="1" fill-rule="nonzero"/></g></g></g><g fill="#373643" fill-opacity="1"><g transform="translate(15.484745, 28.536151)"><g><path d="M -0.109375 -15.203125 C -0.265625 -15.578125 -0.273438 -15.914062 -0.140625 -16.21875 C -0.015625 -16.53125 0.191406 -16.769531 0.484375 -16.9375 C 0.773438 -17.113281 1.082031 -17.203125 1.40625 -17.203125 C 1.726562 -17.203125 2.003906 -17.140625 2.234375 -17.015625 C 2.472656 -16.890625 2.664062 -16.671875 2.8125 -16.359375 L 8.75 -4.96875 L 14.578125 -16.3125 C 14.878906 -16.90625 15.335938 -17.203125 15.953125 -17.203125 C 16.273438 -17.203125 16.582031 -17.109375 16.875 -16.921875 C 17.175781 -16.742188 17.390625 -16.5 17.515625 -16.1875 C 17.648438 -15.875 17.609375 -15.5 17.390625 -15.0625 L 10.15625 -0.84375 C 9.832031 -0.28125 9.363281 0 8.75 0 C 8.457031 0 8.175781 -0.0703125 7.90625 -0.21875 C 7.632812 -0.363281 7.429688 -0.585938 7.296875 -0.890625 Z M -0.109375 -15.203125 "/></g></g></g><g fill="#373643" fill-opacity="1"><g transform="translate(32.921936, 28.536151)"><g><path d="M 12.5625 -13.75 C 13.019531 -13.75 13.390625 -13.613281 13.671875 -13.34375 C 13.953125 -13.082031 14.09375 -12.75 14.09375 -12.34375 L 14.09375 -1.40625 C 14.09375 -0.988281 13.953125 -0.648438 13.671875 -0.390625 C 13.390625 -0.128906 13.019531 0 12.5625 0 C 12.101562 0 11.75 -0.101562 11.5 -0.3125 C 11.25 -0.519531 11.097656 -0.796875 11.046875 -1.140625 C 10.429688 -0.648438 9.742188 -0.289062 8.984375 -0.0625 C 8.234375 0.15625 7.515625 0.265625 6.828125 0.265625 C 5.535156 0.265625 4.414062 -0.03125 3.46875 -0.625 C 2.519531 -1.21875 1.796875 -2.050781 1.296875 -3.125 C 0.796875 -4.207031 0.546875 -5.46875 0.546875 -6.90625 C 0.546875 -8.3125 0.820312 -9.546875 1.375 -10.609375 C 1.9375 -11.671875 2.71875 -12.503906 3.71875 -13.109375 C 4.71875 -13.710938 5.875 -14.015625 7.1875 -14.015625 C 7.757812 -14.015625 8.394531 -13.90625 9.09375 -13.6875 C 9.800781 -13.46875 10.453125 -13.125 11.046875 -12.65625 C 11.117188 -12.988281 11.28125 -13.253906 11.53125 -13.453125 C 11.78125 -13.648438 12.125 -13.75 12.5625 -13.75 Z M 7.15625 -2.453125 C 7.945312 -2.453125 8.710938 -2.628906 9.453125 -2.984375 C 10.191406 -3.335938 10.710938 -3.851562 11.015625 -4.53125 L 11.015625 -9.203125 C 10.671875 -9.867188 10.15625 -10.378906 9.46875 -10.734375 C 8.789062 -11.097656 8.097656 -11.28125 7.390625 -11.28125 C 6.265625 -11.28125 5.351562 -10.863281 4.65625 -10.03125 C 3.96875 -9.207031 3.625 -8.160156 3.625 -6.890625 C 3.625 -5.554688 3.945312 -4.484375 4.59375 -3.671875 C 5.238281 -2.859375 6.09375 -2.453125 7.15625 -2.453125 Z M 7.15625 -2.453125 "/></g></g></g><g fill="#373643" fill-opacity="1"><g transform="translate(48.523611, 28.536151)"><g><path d="M 4.015625 -1.34375 C 4.015625 -0.988281 3.863281 -0.675781 3.5625 -0.40625 C 3.269531 -0.132812 2.910156 0 2.484375 0 C 2.035156 0 1.664062 -0.132812 1.375 -0.40625 C 1.082031 -0.675781 0.9375 -0.988281 0.9375 -1.34375 L 0.9375 -16.125 C 0.9375 -16.476562 1.082031 -16.789062 1.375 -17.0625 C 1.664062 -17.332031 2.035156 -17.46875 2.484375 -17.46875 C 2.910156 -17.46875 3.269531 -17.332031 3.5625 -17.0625 C 3.863281 -16.789062 4.015625 -16.476562 4.015625 -16.125 Z M 4.015625 -1.34375 "/></g></g></g><g fill="#373643" fill-opacity="1"><g transform="translate(52.950211, 28.536151)"><g><path d="M 7.71875 -2.40625 C 8.238281 -2.40625 8.75 -2.472656 9.25 -2.609375 C 9.757812 -2.753906 10.234375 -3 10.671875 -3.34375 C 11.078125 -3.726562 11.476562 -3.90625 11.875 -3.875 C 12.269531 -3.84375 12.597656 -3.695312 12.859375 -3.4375 C 13.117188 -3.175781 13.25 -2.851562 13.25 -2.46875 C 13.25 -2.082031 13.0625 -1.707031 12.6875 -1.34375 C 12.0625 -0.738281 11.316406 -0.3125 10.453125 -0.0625 C 9.585938 0.175781 8.703125 0.285156 7.796875 0.265625 C 6.398438 0.265625 5.164062 -0.0195312 4.09375 -0.59375 C 3.019531 -1.164062 2.179688 -1.960938 1.578125 -2.984375 C 0.972656 -4.015625 0.671875 -5.207031 0.671875 -6.5625 C 0.671875 -8.039062 0.957031 -9.335938 1.53125 -10.453125 C 2.113281 -11.566406 2.929688 -12.4375 3.984375 -13.0625 C 5.035156 -13.695312 6.28125 -14.015625 7.71875 -14.015625 C 9.15625 -14.015625 10.378906 -13.722656 11.390625 -13.140625 C 12.398438 -12.554688 13.171875 -11.734375 13.703125 -10.671875 C 14.234375 -9.617188 14.5 -8.394531 14.5 -7 C 14.5 -6.539062 14.40625 -6.15625 14.21875 -5.84375 C 14.039062 -5.53125 13.566406 -5.375 12.796875 -5.375 L 3.8125 -5.375 C 4.0625 -4.488281 4.535156 -3.769531 5.234375 -3.21875 C 5.941406 -2.675781 6.769531 -2.40625 7.71875 -2.40625 Z M 7.75 -11.34375 C 6.707031 -11.34375 5.832031 -11.015625 5.125 -10.359375 C 4.425781 -9.703125 3.976562 -8.84375 3.78125 -7.78125 L 11.640625 -7.78125 C 11.546875 -8.84375 11.191406 -9.703125 10.578125 -10.359375 C 9.972656 -11.015625 9.03125 -11.34375 7.75 -11.34375 Z M 7.75 -11.34375 "/></g></g></g><g fill="#373643" fill-opacity="1"><g transform="translate(68.632866, 28.536151)"><g><path d="M 7.421875 -2.5625 C 7.835938 -2.800781 8.210938 -2.882812 8.546875 -2.8125 C 8.878906 -2.738281 9.148438 -2.578125 9.359375 -2.328125 C 9.566406 -2.085938 9.671875 -1.804688 9.671875 -1.484375 C 9.671875 -1.253906 9.597656 -1.019531 9.453125 -0.78125 C 9.304688 -0.550781 9.082031 -0.351562 8.78125 -0.1875 C 8.382812 0.03125 8.019531 0.160156 7.6875 0.203125 C 7.363281 0.242188 6.988281 0.265625 6.5625 0.265625 C 5.394531 0.265625 4.492188 0.0234375 3.859375 -0.453125 C 3.234375 -0.941406 2.800781 -1.570312 2.5625 -2.34375 C 2.332031 -3.125 2.21875 -3.945312 2.21875 -4.8125 L 2.21875 -11.171875 L 1.1875 -11.171875 C 0.6875 -11.171875 0.3125 -11.304688 0.0625 -11.578125 C -0.175781 -11.847656 -0.296875 -12.140625 -0.296875 -12.453125 C -0.296875 -12.773438 -0.171875 -13.070312 0.078125 -13.34375 C 0.328125 -13.613281 0.695312 -13.75 1.1875 -13.75 L 2.21875 -13.75 L 2.21875 -16.0625 C 2.21875 -16.53125 2.367188 -16.878906 2.671875 -17.109375 C 2.972656 -17.347656 3.320312 -17.46875 3.71875 -17.46875 C 4.101562 -17.46875 4.457031 -17.347656 4.78125 -17.109375 C 5.101562 -16.878906 5.265625 -16.53125 5.265625 -16.0625 L 5.265625 -13.75 L 7.375 -13.75 C 7.84375 -13.75 8.203125 -13.613281 8.453125 -13.34375 C 8.703125 -13.070312 8.828125 -12.773438 8.828125 -12.453125 C 8.828125 -12.128906 8.703125 -11.832031 8.453125 -11.5625 C 8.203125 -11.300781 7.84375 -11.171875 7.375 -11.171875 L 5.265625 -11.171875 L 5.265625 -4.8125 C 5.265625 -4.414062 5.289062 -4.03125 5.34375 -3.65625 C 5.394531 -3.289062 5.515625 -2.984375 5.703125 -2.734375 C 5.898438 -2.492188 6.1875 -2.375 6.5625 -2.375 C 6.707031 -2.375 6.863281 -2.394531 7.03125 -2.4375 C 7.207031 -2.488281 7.335938 -2.53125 7.421875 -2.5625 Z M 7.421875 -2.5625 "/></g></g></g><g fill="#373643" fill-opacity="1"><g transform="translate(77.999175, 28.536151)"><g><path d="M 4.671875 -4.78125 L 4.671875 -1.375 C 4.671875 -0.90625 4.503906 -0.554688 4.171875 -0.328125 C 3.835938 -0.109375 3.484375 0 3.109375 0 C 2.710938 0 2.351562 -0.109375 2.03125 -0.328125 C 1.71875 -0.554688 1.5625 -0.894531 1.5625 -1.34375 L 1.5625 -15.796875 C 1.5625 -16.210938 1.710938 -16.550781 2.015625 -16.8125 C 2.328125 -17.070312 2.695312 -17.203125 3.125 -17.203125 L 8.640625 -17.203125 C 10.128906 -17.203125 11.40625 -16.9375 12.46875 -16.40625 C 13.53125 -15.875 14.335938 -15.132812 14.890625 -14.1875 C 15.453125 -13.238281 15.734375 -12.128906 15.734375 -10.859375 C 15.734375 -9.035156 15.101562 -7.566406 13.84375 -6.453125 C 12.59375 -5.335938 10.832031 -4.78125 8.5625 -4.78125 Z M 4.671875 -14.53125 L 4.671875 -7.453125 L 8.5625 -7.453125 C 9.894531 -7.453125 10.910156 -7.757812 11.609375 -8.375 C 12.304688 -9 12.65625 -9.828125 12.65625 -10.859375 C 12.65625 -11.972656 12.304688 -12.863281 11.609375 -13.53125 C 10.921875 -14.195312 9.941406 -14.53125 8.671875 -14.53125 Z M 4.671875 -14.53125 "/></g></g></g><g fill="#373643" fill-opacity="1"><g transform="translate(94.248678, 28.536151)"><g><path d="M 7.296875 -13.75 C 7.773438 -13.75 8.160156 -13.644531 8.453125 -13.4375 C 8.742188 -13.226562 8.890625 -12.890625 8.890625 -12.421875 C 8.890625 -11.984375 8.742188 -11.640625 8.453125 -11.390625 C 8.160156 -11.140625 7.773438 -11.015625 7.296875 -11.015625 C 6.160156 -11.015625 5.363281 -10.609375 4.90625 -9.796875 C 4.445312 -8.992188 4.21875 -7.894531 4.21875 -6.5 L 4.21875 -1.375 C 4.21875 -0.976562 4.070312 -0.648438 3.78125 -0.390625 C 3.488281 -0.128906 3.140625 0 2.734375 0 C 2.265625 0 1.882812 -0.128906 1.59375 -0.390625 C 1.300781 -0.648438 1.15625 -0.976562 1.15625 -1.375 L 1.15625 -12.359375 C 1.15625 -12.796875 1.320312 -13.132812 1.65625 -13.375 C 1.988281 -13.625 2.347656 -13.75 2.734375 -13.75 C 3.109375 -13.75 3.445312 -13.628906 3.75 -13.390625 C 4.0625 -13.160156 4.21875 -12.816406 4.21875 -12.359375 L 4.21875 -12.203125 C 4.613281 -12.722656 5.070312 -13.109375 5.59375 -13.359375 C 6.113281 -13.617188 6.679688 -13.75 7.296875 -13.75 Z M 7.296875 -13.75 "/></g></g></g><g fill="#373643" fill-opacity="1"><g transform="translate(102.319323, 28.536151)"><g><path d="M 7.71875 -14.015625 C 9.15625 -14.015625 10.414062 -13.710938 11.5 -13.109375 C 12.582031 -12.503906 13.421875 -11.660156 14.015625 -10.578125 C 14.609375 -9.503906 14.90625 -8.242188 14.90625 -6.796875 C 14.882812 -5.398438 14.570312 -4.171875 13.96875 -3.109375 C 13.363281 -2.046875 12.523438 -1.21875 11.453125 -0.625 C 10.390625 -0.03125 9.144531 0.265625 7.71875 0.265625 C 6.3125 0.265625 5.066406 -0.03125 3.984375 -0.625 C 2.910156 -1.21875 2.070312 -2.046875 1.46875 -3.109375 C 0.863281 -4.171875 0.554688 -5.398438 0.546875 -6.796875 C 0.546875 -8.242188 0.84375 -9.503906 1.4375 -10.578125 C 2.039062 -11.660156 2.882812 -12.503906 3.96875 -13.109375 C 5.050781 -13.710938 6.300781 -14.015625 7.71875 -14.015625 Z M 7.71875 -2.4375 C 8.945312 -2.4375 9.925781 -2.835938 10.65625 -3.640625 C 11.382812 -4.453125 11.75 -5.503906 11.75 -6.796875 C 11.75 -8.128906 11.382812 -9.210938 10.65625 -10.046875 C 9.925781 -10.890625 8.945312 -11.3125 7.71875 -11.3125 C 6.507812 -11.3125 5.535156 -10.890625 4.796875 -10.046875 C 4.066406 -9.210938 3.703125 -8.128906 3.703125 -6.796875 C 3.703125 -5.503906 4.066406 -4.453125 4.796875 -3.640625 C 5.535156 -2.835938 6.507812 -2.4375 7.71875 -2.4375 Z M 7.71875 -2.4375 "/></g></g></g></svg>